<svg width="36" height="36" viewBox="0 0 36 36" xmlns="http://www.w3.org/2000/svg" xmlns:xlink="http://www.w3.org/1999/xlink">
    <defs>
        <path d="M18 36C8.059 36 0 27.941 0 18S8.059 0 18 0s18 8.059 18 18-8.059 18-18 18z" id="5q2ti3zyha"/>
    </defs>
    <g fill="none" fill-rule="evenodd">
        <path d="M18 36c9.941 0 18-8.059 18-18S27.941 0 18 0 0 8.059 0 18s8.059 18 18 18z" fill="#EAEAFF"/>
        <g>
            <mask id="zm9nbn50rb" fill="#fff">
                <use xlink:href="#5q2ti3zyha"/>
            </mask>
            <use fill="#FFEBF0" xlink:href="#5q2ti3zyha"/>
            <g fill-rule="nonzero" mask="url(#zm9nbn50rb)">
                <path d="M43 37.665C37.977 27.888 31.734 23 24.272 23c-11.194 0-16.343.639-20.737 4.669C.593 30.356-1.919 34.254-4 39.361l11.273 2.974-1.233 8.779L20.136 57l14.176-5.946-2.108-10.415L43 37.665z" fill="#3D5CFF"/>
                <path d="M26.994 10.61c-.14-3.691-1.345-7.382-7.27-6.47-4.076.63-7.831 1.562-9.317 5.232-1.044 2.576-.02 7.686 2.41 9.713 2.597 2.163 4.324 2.596 5.18 1.298l4.981-3.467c2.798-.757 4.137-2.86 4.016-6.307z" fill="#1F1F39"/>
                <path d="M18.64 13.63c-.702.081-1.325.163-1.867.223.321 1.258.087 2.555-.703 3.894v-1.724c0-.77-.24-1.561-.422-2.048-.883.081-1.526.122-1.928.122-1.285-.149-2.068.426-2.35 1.723-.42 1.947 1.507 2.596 2.571 2.596.623 0 .804-.081.864-.122v6.185c.147 1.014 1.5 1.52 4.056 1.52 2.142 0 3.428-.506 3.856-1.52v-4.542c1.42-.717 2.276-1.65 2.57-2.799.295-1.149.362-3.035.201-5.657-2.276 1.149-4.558 1.865-6.848 2.15z" fill="#F9D2DD"/>
                <path d="M22.697 23.445v-3.549l-6.205.65c1.305 1.905 4.016 2.615 6.205 2.899z" fill="#F9ACC0"/>
            </g>
        </g>
    </g>
</svg>
