<svg width="45" height="45" viewBox="0 0 45 45" xmlns="http://www.w3.org/2000/svg">
    <defs>
        <linearGradient x1="50%" y1="0%" x2="50%" y2="100%" id="ig5wzex7la">
            <stop stop-color="#00EB71" offset="0%"/>
            <stop stop-color="#00D767" offset="100%"/>
        </linearGradient>
    </defs>
    <g fill="none" fill-rule="evenodd">
        <path d="M22.5 0C39.65 0 45 6.17 45 22.5S39.65 45 22.5 45 0 38.83 0 22.5 5.35 0 22.5 0z" fill="url(#ig5wzex7la)"/>
        <g fill="#FFF" fill-rule="nonzero">
            <path d="m17.664 31.053-3.733-3.733a.467.467 0 0 0-.66 0l-1.4 1.4a.467.467 0 0 0 0 .66l3.733 3.733a.467.467 0 0 0 .66 0l1.4-1.4a.467.467 0 0 0 0-.66zm-1.73 1.07-3.073-3.073.74-.74 3.074 3.073-.74.74z"/>
            <path d="M35.533 12.91a1.594 1.594 0 0 0 0-2.253l-1.206-1.206c-.631-.601-1.623-.601-2.253 0l-.274.273-.603-.603-.66.66.603.603-.74.74-.603-.603-.66.66.622.622c-.19.267-.292.586-.292.914.002.084.01.167.024.25l-6.221 6.22-.383-.382a3.259 3.259 0 0 0-4.609 0l-1.313 1.313a6.04 6.04 0 0 1-2.915 1.616l-.64.147a6.978 6.978 0 0 0-3.365 11.733l1.325 1.325a6.978 6.978 0 0 0 11.733-3.365l.148-.64a6.036 6.036 0 0 1 1.615-2.915l1.313-1.313a3.263 3.263 0 0 0 0-4.61l-.383-.382 6.222-6.221c.082.014.165.022.249.024.328 0 .647-.102.914-.292l.623.622.66-.66-.604-.603.74-.74.603.603.66-.66-.603-.603.273-.273zM25.52 26.047l-1.312 1.313a6.97 6.97 0 0 0-1.867 3.365l-.147.64a6.044 6.044 0 0 1-10.164 2.915l-1.324-1.325A6.045 6.045 0 0 1 13.62 22.79l.64-.147a6.973 6.973 0 0 0 3.365-1.866l1.313-1.313a2.326 2.326 0 0 1 3.29 0l.382.383-2.215 2.215a2.8 2.8 0 1 0 2.526 2.527l2.216-2.215.382.382a2.33 2.33 0 0 1 0 3.29zm-4.065-2.516c.729.728.73 1.91 0 2.64-.74.704-1.9.704-2.64 0a1.867 1.867 0 0 1 2.64-2.64zm1.169.038a2.791 2.791 0 0 0-1.207-1.207l8.518-8.517 1.206 1.206-8.517 8.518zm12.25-11.318-2.14 2.14a.675.675 0 0 1-.933 0l-1.206-1.206a.66.66 0 0 1 0-.934l2.14-2.14a.66.66 0 0 1 .933 0l1.207 1.207a.66.66 0 0 1 0 .933z"/>
        </g>
    </g>
</svg>
