<svg width="45" height="45" viewBox="0 0 45 45" xmlns="http://www.w3.org/2000/svg">
    <defs>
        <linearGradient x1="50%" y1="0%" x2="50%" y2="100%" id="7sza3gdxia">
            <stop stop-color="#FFEF18" offset="0%"/>
            <stop stop-color="#EFCF00" offset="100%"/>
        </linearGradient>
    </defs>
    <g fill="none" fill-rule="evenodd">
        <path d="M22.5 0C39.65 0 45 6.17 45 22.5S39.65 45 22.5 45 0 38.83 0 22.5 5.35 0 22.5 0z" fill="url(#7sza3gdxia)"/>
        <g fill="#FFF" fill-rule="nonzero">
            <path d="m35.048 13.866.482-.882.883-.482-.883-.483-.482-.882-.483.882-.882.483.882.482zM15.037 34.303l-.328.6-.6.327.6.329.328.599.328-.6.6-.328-.6-.327zM33.928 30.284l-.327.6-.6.327.6.328.327.6.328-.6.6-.328-.6-.328zM11.187 14.213l.328-.599.6-.328-.6-.328-.328-.6-.328.6-.6.328.6.328zM14.004 24.645a.52.52 0 0 0 .642-.817l-1.463-1.15a.523.523 0 0 0-.841.409v2.8c-1.04-.44-2.373.339-2.341 1.448.05 2.016 3.21 2.091 3.373.086a.343.343 0 0 0 .007-.11v-3.156l.623.49zm-1.662 2.7c-.027.688-1.29.68-1.302-.01.013-.7 1.303-.695 1.302.01zM37.81 17.902l-1.464-1.15a.523.523 0 0 0-.84.408v2.8c-1.04-.44-2.374.339-2.342 1.448.05 2.012 3.202 2.094 3.372.093a.349.349 0 0 0 .008-.111v-3.16l.623.489a.52.52 0 0 0 .642-.817zm-2.305 3.514c-.023.69-1.29.682-1.302-.008.013-.698 1.3-.695 1.302.008zM29.844 27.453c-.365 0-.722.106-1.028.305l-2.5 1.598-.528-2.421a.835.835 0 0 1-.017-.155l.026-5.537a.65.65 0 0 1 .57-.642l3.54-.427a1.791 1.791 0 0 0 1.453-2.391l-1.965-5.25a1.693 1.693 0 0 0-3.27.594c-.09.328 1.184 3.484 1.284 3.858-.08-.005-2.786.442-2.77.353l-4.316-.98a.602.602 0 0 1-.25-.128c-.524-.464-1.766-1.848-1.999-4.673-.46-2.445-4.136-1.842-3.774.635.32 1.856 1.23 5.303 3.729 7.535.682.531.5 1.583.52 2.322a.52.52 0 0 0 1.039 0v-1.19a2.58 2.58 0 0 0-.865-1.905c-2.266-2.024-3.102-5.216-3.399-6.939a.878.878 0 0 1 1.717-.339c.271 3.178 1.727 4.787 2.343 5.332.2.176.441.3.701.362.38.048 4.652 1.16 4.912 1.01l3.19-.457a.523.523 0 0 0 .416-.69L27.2 13.346a.651.651 0 0 1 1.223-.448l1.963 5.248a.746.746 0 0 1-.603.996l-3.541.426a1.69 1.69 0 0 0-1.484 1.672l-.026 5.536c-.062.077.701 3.345.729 3.53a.523.523 0 0 0 .787.327l3.13-2.002a.872.872 0 0 1 .95 1.462l-1.076.707a.52.52 0 0 0 .572.869l1.075-.708a1.919 1.919 0 0 0-1.055-3.51z"/>
            <path d="m27.512 31.944-1.479.97a1.142 1.142 0 0 1-1.74-.753l-.619-3.64a1.47 1.47 0 0 0-1.273-1.215 1.58 1.58 0 0 0-1.682 1.187c-1.09 3.39.342 6.513 1.293 8.073a.94.94 0 0 1-.298 1.281.96.96 0 0 1-1.22-.064c-3.147-4.227-1.61-9.426-1.063-10.921.26-.596.126-2.097.157-2.735a.52.52 0 0 0-1.04 0c-.031.426.083 2.007-.093 2.378-.594 1.623-2.26 7.281 1.232 11.932a2.023 2.023 0 0 0 3.212-2.412c-.855-1.403-2.145-4.199-1.2-7.182l.12-.256a.442.442 0 0 1 .83.111l.62 3.642a2.166 2.166 0 0 0 2.138 1.8c.862.075 1.983-.922 2.675-1.328a.52.52 0 0 0-.57-.868zM22.704 16.238a2.955 2.955 0 0 0 2.952-2.952c-.138-3.906-5.766-3.905-5.903 0a2.955 2.955 0 0 0 2.951 2.952zm0-4.864a1.913 1.913 0 0 1 0 3.825 1.913 1.913 0 0 1 0-3.825z"/>
        </g>
    </g>
</svg>
