<svg width="45" height="45" viewBox="0 0 45 45" xmlns="http://www.w3.org/2000/svg">
    <defs>
        <linearGradient x1="50%" y1="0%" x2="50%" y2="100%" id="g5njj3nkja">
            <stop stop-color="#F12041" offset="0%"/>
            <stop stop-color="#D21331" offset="100%"/>
        </linearGradient>
    </defs>
    <g fill="none" fill-rule="evenodd">
        <path d="M22.5 0C39.65 0 45 6.17 45 22.5S39.65 45 22.5 45 0 38.83 0 22.5 5.35 0 22.5 0z" fill="url(#g5njj3nkja)"/>
        <g fill="#FFF" fill-rule="nonzero">
            <path d="M33.52 22.02c.27 0 .48.212.48.48s-.21.48-.48.48h-.478v-.96h.479zM22.98 22.02h10.062v.96H22.979z"/>
            <path d="M31.604 34H22.5c.268 0 .48-.21.48-.48v-.478h8.624c.796 0 1.438-.642 1.438-1.438V22.98h.479c.268 0 .479-.21.479-.479v9.104A2.397 2.397 0 0 1 31.604 34zM34 13.396V22.5c0-.268-.21-.48-.48-.48h-.478v-8.624c0-.796-.642-1.438-1.438-1.438H22.98v-.479c0-.268-.21-.479-.479-.479h9.104A2.397 2.397 0 0 1 34 13.396z"/>
            <path d="M30.167 16.75c.268 0 .479.21.479.48 0 .267-.211.478-.48.478h-3.833a.475.475 0 0 1-.479-.479c0-.268.211-.479.48-.479h3.833zM30.167 26.333c.268 0 .479.211.479.48 0 .268-.211.479-.48.479h-3.833a.475.475 0 0 1-.479-.48c0-.268.211-.479.48-.479h3.833zM30.167 29.208c.268 0 .479.211.479.48 0 .268-.211.479-.48.479h-3.833a.475.475 0 0 1-.479-.48c0-.268.211-.479.48-.479h3.833zM22.98 33.042v.479c0 .268-.212.479-.48.479a.475.475 0 0 1-.48-.48v-.478h.96zM22.02 22.98h.96v10.062h-.96zM22.02 22.02h.96v.96h-.96z"/>
            <path d="M22.02 11.958h.96v10.063h-.96zM22.98 11.48v.478h-.96v-.479c0-.268.212-.479.48-.479s.48.21.48.48z"/>
            <path d="M11.958 22.02h10.063v.96H11.958zM18.667 16.75c.268 0 .479.21.479.48 0 .267-.211.478-.48.478H17.23v-.958h1.438zM18.523 29.352a.463.463 0 0 1 0 .67.45.45 0 0 1-.335.145.45.45 0 0 1-.336-.144L16.75 28.92l.67-.671 1.103 1.102z"/>
            <path d="M17.852 26.477a.463.463 0 0 1 .67 0 .463.463 0 0 1 0 .67l-1.101 1.103-.671-.67 1.102-1.103zM16.076 28.249l.671-.67.67.67-.67.67zM17.23 17.708v1.438c0 .268-.212.479-.48.479a.475.475 0 0 1-.48-.48v-1.437h.96z"/>
            <path d="M16.27 16.75h.96v.958h-.96zM17.23 15.313v1.437h-.96v-1.438c0-.268.212-.479.48-.479s.48.211.48.48zM16.75 27.58l-.67.67-1.103-1.102a.463.463 0 0 1 0-.67.463.463 0 0 1 .67 0l1.103 1.101z"/>
            <path d="M16.27 16.75v.958h-1.437a.475.475 0 0 1-.479-.479c0-.268.211-.479.48-.479h1.437zM15.648 30.023a.45.45 0 0 1-.335.144.45.45 0 0 1-.336-.144.463.463 0 0 1 0-.67l1.102-1.103.671.67-1.102 1.103zM11.958 22.02v.96h-.479A.475.475 0 0 1 11 22.5c0-.268.21-.48.48-.48h.478z"/>
            <path d="M11 13.396A2.397 2.397 0 0 1 13.396 11H22.5c-.268 0-.48.21-.48.48v.478h-8.624c-.796 0-1.438.642-1.438 1.438v8.625h-.479c-.268 0-.479.21-.479.479v-9.104zM11.958 31.604c0 .796.642 1.438 1.438 1.438h8.625v.479c0 .268.21.479.479.479h-9.104A2.397 2.397 0 0 1 11 31.604V22.5c0 .268.21.48.48.48h.478v8.624z"/>
        </g>
    </g>
</svg>
