<svg width="45" height="45" viewBox="0 0 45 45" xmlns="http://www.w3.org/2000/svg">
    <defs>
        <linearGradient x1="50%" y1="0%" x2="50%" y2="100%" id="2furuvdiia">
            <stop stop-color="#0249F4" offset="0%"/>
            <stop stop-color="#003DD7" offset="100%"/>
        </linearGradient>
    </defs>
    <g fill="none" fill-rule="evenodd">
        <path d="M22.5 0C39.65 0 45 6.17 45 22.5S39.65 45 22.5 45 0 38.83 0 22.5 5.35 0 22.5 0z" fill="url(#2furuvdiia)"/>
        <g fill="#FFF" fill-rule="nonzero">
            <path d="M19.263 26.356a1.96 1.96 0 0 0-1.21-.42 1.94 1.94 0 0 0-1.52.725 1.91 1.91 0 0 0-.414 1.42c.058.515.315.975.722 1.297.343.272.773.42 1.21.42a1.94 1.94 0 0 0 1.934-2.145 1.916 1.916 0 0 0-.722-1.297zm-.382 2.162a1.057 1.057 0 0 1-.83.395 1.056 1.056 0 0 1-1.051-.93 1.03 1.03 0 0 1 .223-.767c.202-.25.504-.394.83-.394a1.056 1.056 0 0 1 1.051.93c.031.276-.048.548-.223.766zM27.053 21.818c.293 0 .575-.064.841-.19a1.923 1.923 0 0 0 .907-2.58 1.957 1.957 0 0 0-2.594-.902 1.92 1.92 0 0 0-.994 1.106c-.17.486-.14 1.01.086 1.473a1.96 1.96 0 0 0 1.754 1.093zm-1.003-2.274a1.061 1.061 0 0 1 .999-.704c.405 0 .78.234.955.595a1.043 1.043 0 0 1-.492 1.393 1.07 1.07 0 0 1-1.416-.49 1.027 1.027 0 0 1-.046-.794zM22.232 18.687c.143.033.289.049.434.049.912 0 1.69-.617 1.895-1.501a1.932 1.932 0 0 0-1.464-2.313 1.969 1.969 0 0 0-.436-.05 1.93 1.93 0 0 0-.429 3.815zm-.6-2.114a1.048 1.048 0 0 1 1.268-.787c.277.063.513.229.663.468.148.235.196.513.134.783a1.063 1.063 0 0 1-1.933.319 1.027 1.027 0 0 1-.132-.783zM18.712 19.793c.407-.323.663-.784.72-1.298a1.91 1.91 0 0 0-.412-1.42 1.944 1.944 0 0 0-1.52-.725c-.438 0-.868.149-1.21.42a1.914 1.914 0 0 0-.722 1.295 1.912 1.912 0 0 0 .413 1.422 1.955 1.955 0 0 0 2.73.305zm-2.04-.861a1.034 1.034 0 0 1 .167-1.467c.19-.15.418-.23.66-.23.326 0 .629.145.83.395a1.038 1.038 0 0 1-.168 1.468c-.188.15-.416.229-.658.229a1.06 1.06 0 0 1-.831-.395z"/>
            <path d="M36.83 15.457a.585.585 0 0 0-.428-.169c-.253 0-.924 0-5.002 3.47l-.248.211a10.906 10.906 0 0 0-3.658-4.82A10.845 10.845 0 0 0 20.982 12h-.002c-1.599 0-3.542.559-5.072 1.458C14.032 14.561 13 16.035 13 17.61c0 1.901 1.073 2.696 1.934 3.335.703.521 1.258.933 1.258 1.835 0 .901-.554 1.313-1.256 1.833-.862.639-1.934 1.433-1.933 3.335 0 1.574 1.034 3.05 2.91 4.153 1.53.9 3.475 1.46 5.074 1.46h.003c2.903 0 5.63-1.12 7.683-3.154a10.658 10.658 0 0 0 3.182-7.506c.688-.783 1.354-1.56 1.962-2.294 1.041-1.254 1.842-2.289 2.38-3.076.711-1.042 1.023-1.68.634-2.074zM28.05 29.778a9.96 9.96 0 0 1-7.059 2.898h-.002c-2.858-.001-7.098-1.987-7.1-4.728 0-1.456.765-2.023 1.575-2.623.757-.561 1.615-1.198 1.615-2.546 0-1.347-.859-1.984-1.616-2.545-.81-.601-1.576-1.169-1.576-2.624 0-1.684 1.548-2.845 2.47-3.388 1.381-.812 3.196-1.336 4.624-1.336h.002c2.177 0 4.247.683 5.984 1.974a10 10 0 0 1 3.47 4.73c-1.922 1.677-4.003 3.612-5.552 5.166-2.574.334-2.925 2.049-3.181 3.31-.218 1.072-.36 1.59-1.188 1.657a.443.443 0 0 0-.134.851c.053.022 1.32.54 2.8.54 1.032 0 1.916-.25 2.63-.743.879-.608 1.475-1.57 1.774-2.863 1.013-1.024 2.17-2.26 3.314-3.532a9.779 9.779 0 0 1-2.85 5.802zm-1.354-2.353c-.47 1.86-1.65 2.803-3.514 2.803-.492 0-.962-.067-1.358-.15.473-.483.62-1.208.748-1.836.243-1.197.474-2.33 2.357-2.599l1.767 1.782zm6.118-6.997a117.235 117.235 0 0 1-5.632 6.228l-.27-.273-1.196-1.205a116.568 116.568 0 0 1 5.521-5.11c.221-.192.441-.382.658-.567 2.204-1.88 3.359-2.698 3.948-3.053-.352.592-1.162 1.756-3.029 3.98z"/>
        </g>
    </g>
</svg>
