<svg width="28" height="28" viewBox="0 0 28 28" xmlns="http://www.w3.org/2000/svg">
    <g fill-rule="nonzero" fill="none">
        <path d="M20.417 0c-4.182 0-7.584 3.402-7.584 7.583 0 4.182 3.402 7.584 7.584 7.584 4.181 0 7.583-3.402 7.583-7.584C28 3.402 24.598 0 20.417 0z" fill="#F44336"/>
        <path d="M16.333 23.333a4.667 4.667 0 1 1-9.333 0 4.667 4.667 0 0 1 9.333 0z" fill="#FFA000"/>
        <path d="M20.79 17.481c-.125.005-.247.019-.373.019-5.469 0-9.917-4.448-9.917-9.917 0-1.921.559-3.71 1.509-5.232-.115-.005-.227-.018-.342-.018C7.163 2.333 3.5 5.997 3.5 10.5v3.253A7.823 7.823 0 0 1 .714 19.74 2.036 2.036 0 0 0 0 21.291c0 1.127.916 2.042 2.042 2.042h19.25a2.044 2.044 0 0 0 2.041-2.041c0-.598-.26-1.164-.725-1.561a7.826 7.826 0 0 1-1.818-2.25z" fill="#FFC107"/>
    </g>
</svg>
