<svg width="24" height="26" viewBox="0 0 24 26" xmlns="http://www.w3.org/2000/svg">
    <g fill-rule="nonzero" fill="none">
        <path d="M16.333 21.333a4.667 4.667 0 1 1-9.333 0 4.667 4.667 0 0 1 9.333 0z" fill="#FFA000"/>
        <path d="M23.333 19.292a2.045 2.045 0 0 1-1.74 2.02l-.15.016-.151.005H2.042A2.044 2.044 0 0 1 0 19.292a2.036 2.036 0 0 1 .758-1.589l.228-.203.044-.041a7.894 7.894 0 0 0 1.513-1.978l.011.003a7.81 7.81 0 0 0 .946-3.731V8.5C3.5 3.997 7.163.333 11.667.333c4.503 0 8.166 3.664 8.166 8.167v3.253c0 1.32.331 2.598.946 3.73l.011-.002a7.881 7.881 0 0 0 1.83 2.26l.085.078.036.036-.122-.114c.454.387.714.953.714 1.55z" fill="#FFC107"/>
    </g>
</svg>
