<svg width="45" height="45" viewBox="0 0 45 45" xmlns="http://www.w3.org/2000/svg">
    <defs>
        <linearGradient x1="50%" y1="0%" x2="50%" y2="100%" id="7ecceyygea">
            <stop stop-color="#5F6AF5" offset="0%"/>
            <stop stop-color="#404CE1" offset="100%"/>
        </linearGradient>
    </defs>
    <g fill="none" fill-rule="evenodd">
        <path d="M22.5 0C39.65 0 45 6.17 45 22.5S39.65 45 22.5 45 0 38.83 0 22.5 5.35 0 22.5 0z" fill="url(#7ecceyygea)"/>
        <g transform="translate(11 10)" fill="#FFF" fill-rule="nonzero">
            <path d="M22.421 19.345 15.157 7.93V4.388c1.21 0 2.194-.984 2.194-2.194S16.367 0 15.157 0H7.843c-1.21 0-2.194.984-2.194 2.194s.984 2.194 2.194 2.194V7.93L.579 19.345c-1.551 2.438.197 5.62 3.085 5.62h15.672c2.889 0 4.636-3.183 3.085-5.62zM9.196 8.543a.73.73 0 0 0 .114-.392V4.403a.73.73 0 0 0 0-1.46H7.85a.73.73 0 0 1 0-1.46h7.3a.73.73 0 0 1 0 1.46h-1.46a.73.73 0 0 0 0 1.46v3.748c0 .139.04.275.114.392l1.985 3.12a6.553 6.553 0 0 0-5.013.96l-2.282 1.522a5.087 5.087 0 0 1-3.39.829l4.092-6.431zm10.126 14.94H3.678c-1.73 0-2.776-1.907-1.847-3.366l2.422-3.806a6.548 6.548 0 0 0 5.052-.951l2.28-1.521a5.096 5.096 0 0 1 5.534-.088l4.05 6.366c.93 1.46-.117 3.366-1.847 3.366z"/>
            <path d="M7.112 17.651c-1.21 0-2.195.985-2.195 2.195s.985 2.194 2.195 2.194 2.194-.984 2.194-2.194-.985-2.195-2.194-2.195zm0 3.195a1.001 1.001 0 0 1 0-2 1.001 1.001 0 0 1 0 2zM14.426 14.726c-1.21 0-2.195.984-2.195 2.194s.985 2.194 2.195 2.194 2.194-.984 2.194-2.194-.984-2.194-2.194-2.194zm0 3.194a1.001 1.001 0 0 1 0-2 1.001 1.001 0 0 1 0 2z"/>
            <circle cx="11.5" cy="19.846" r="1"/>
            <circle cx="17.351" cy="19.846" r="1"/>
            <circle cx="14.426" cy="21.308" r="1"/>
        </g>
    </g>
</svg>
