<svg width="18" height="18" viewBox="0 0 18 18" xmlns="http://www.w3.org/2000/svg">
    <g fill="#5C6979" fill-rule="nonzero">
        <path d="M9 18a9 9 0 1 1 9-9 9.008 9.008 0 0 1-9 9zM9 1.256A7.744 7.744 0 1 0 16.744 9 7.753 7.753 0 0 0 9 1.256z"/>
        <path d="M9.837 13.814H8.163a.628.628 0 1 1 0-1.256h1.674a.628.628 0 0 1 0 1.256z"/>
        <path d="M9 13.814a.636.636 0 0 1-.628-.628V7.92a.628.628 0 0 1 .21-1.222H9a.636.636 0 0 1 .628.628v5.86a.636.636 0 0 1-.628.628z"/>
        <circle cx="9" cy="4.814" r="1"/>
    </g>
</svg>
