<svg width="45" height="45" viewBox="0 0 45 45" xmlns="http://www.w3.org/2000/svg">
    <defs>
        <linearGradient x1="50%" y1="0%" x2="50%" y2="100%" id="imfhdu4mka">
            <stop stop-color="#FC8A11" offset="0%"/>
            <stop stop-color="#FE6911" offset="100%"/>
        </linearGradient>
    </defs>
    <g fill="none" fill-rule="evenodd">
        <path d="M22.5 0C39.65 0 45 6.17 45 22.5S39.65 45 22.5 45 0 38.83 0 22.5 5.35 0 22.5 0z" fill="url(#imfhdu4mka)"/>
        <g fill="#FFF" fill-rule="nonzero">
            <path d="M11.663 17.127c-.582 0-1.056.474-1.056 1.056a1.057 1.057 0 0 0 1.903.628l.014-.018a1.056 1.056 0 0 0-.861-1.665zM12.178 12.644c-.985.985-1.428 2.408-1.293 4.133a1.604 1.604 0 0 1 1.067-.175c-.088-1.36.25-2.46.988-3.198 1.494-1.494 4.436-1.301 7.869.517.518.275 1.049.587 1.574.927a26.28 26.28 0 0 1 4.237 3.46 26.46 26.46 0 0 1 3.223 3.88c.215-.343.414-.687.598-1.026a27.979 27.979 0 0 0-3.06-3.613 27.868 27.868 0 0 0-3.76-3.165 23.456 23.456 0 0 0-1.522-.975l-.01-.006c-2.32-1.359-4.523-2.078-6.371-2.078-1.454 0-2.678.456-3.54 1.319z"/>
            <path d="M17.084 17.55a28.104 28.104 0 0 0-3.158 3.75l-.002.004a23.29 23.29 0 0 0-.983 1.532c-.57.97-1.032 1.933-1.374 2.86-1.12 3.033-.902 5.538.612 7.052.862.861 2.086 1.317 3.539 1.317 1.843 0 4.04-.715 6.353-2.069a22.959 22.959 0 0 0 1.541-.986c.01-.008.02-.014.03-.02a27.966 27.966 0 0 0 3.737-3.148 27.861 27.861 0 0 0 3.171-3.769c.35-.5.673-1.007.967-1.506l.013-.021a18.092 18.092 0 0 0 1.368-2.851c.834-2.26.932-4.22.293-5.708a1.61 1.61 0 0 1-.922.602c.59 1.625.146 4.02-1.249 6.661a20.677 20.677 0 0 1-.95 1.61 26.232 26.232 0 0 1-3.45 4.22 26.195 26.195 0 0 1-4.25 3.47 20.5 20.5 0 0 1-1.577.927c-1.893 1-3.637 1.506-5.07 1.506-1.159 0-2.114-.331-2.782-.998-1.494-1.494-1.301-4.436.517-7.868.274-.519.587-1.048.928-1.574a26.175 26.175 0 0 1 3.46-4.237 26.55 26.55 0 0 1 3.88-3.225 20.524 20.524 0 0 0-1.024-.596 27.963 27.963 0 0 0-3.618 3.065zM11.601 19.79c.291.772.662 1.564 1.106 2.362.211-.344.435-.688.67-1.028a15.998 15.998 0 0 1-.748-1.656c-.27.203-.604.323-.966.323l-.062-.001z"/>
            <path d="M14.62 23.203c-.215.343-.414.687-.597 1.026a27.864 27.864 0 0 0 3.06 3.613 27.93 27.93 0 0 0 3.614 3.061c.34-.184.684-.384 1.026-.597a26.576 26.576 0 0 1-3.88-3.223 26.502 26.502 0 0 1-3.224-3.88zM28.741 32.986c-1.399 0-3.095-.482-4.937-1.438-.34.234-.684.457-1.027.668 2.172 1.21 4.227 1.848 5.967 1.848 1.452 0 2.676-.456 3.538-1.317 1.514-1.514 1.732-4.018.612-7.051a17.65 17.65 0 0 0-1.142-2.456c-.21.342-.434.686-.67 1.027 1.746 3.369 1.912 6.246.439 7.72-.664.668-1.621.999-2.78.999zM22.23 20.07a2.628 2.628 0 0 0-2.624 2.625 2.628 2.628 0 0 0 2.624 2.625 2.628 2.628 0 0 0 2.625-2.625 2.627 2.627 0 0 0-2.625-2.625zM28.746 11.325c-1.74 0-3.796.638-5.968 1.85.343.21.686.433 1.026.667 2.59-1.343 4.934-1.763 6.534-1.182.086-.372.302-.695.598-.92-.645-.275-1.38-.415-2.19-.415zM30.849 13.069a1.056 1.056 0 0 0 1.048 1.01h.006a1.057 1.057 0 1 0-.275-2.076l-.011.003c-.443.125-.77.534-.77 1.017v.011a.2.2 0 0 1 .002.035z"/>
        </g>
    </g>
</svg>
