<svg width="48" height="48" viewBox="0 0 48 48" xmlns="http://www.w3.org/2000/svg">
    <g fill="none" fill-rule="evenodd">
        <path d="M12 0h24c6.627 0 12 5.373 12 12v24c0 6.627-5.373 12-12 12H12C5.373 48 0 42.627 0 36V12C0 5.373 5.373 0 12 0z" fill="#FFEBF0"/>
        <path d="M16.5 16.5h15c.92 0 1.667.746 1.667 1.667v11.666c0 .92-.747 1.667-1.667 1.667h-15c-.92 0-1.667-.746-1.667-1.667V18.167c0-.92.746-1.667 1.667-1.667zm15 5v-1.667h-15V21.5h15zm-6.25 5H29a.833.833 0 1 1 0 1.667h-3.75a.833.833 0 1 1 0-1.667z" fill="#FF6905"/>
    </g>
</svg>
