<svg width="45" height="45" viewBox="0 0 45 45" xmlns="http://www.w3.org/2000/svg">
    <defs>
        <linearGradient x1="50%" y1="0%" x2="50%" y2="100%" id="zajb9jy4ka">
            <stop stop-color="#02D3F4" offset="0%"/>
            <stop stop-color="#00ACD7" offset="100%"/>
        </linearGradient>
    </defs>
    <g fill="none" fill-rule="evenodd">
        <path d="M22.5 0C39.65 0 45 6.17 45 22.5S39.65 45 22.5 45 0 38.83 0 22.5 5.35 0 22.5 0z" fill="url(#zajb9jy4ka)"/>
        <g fill="#FFF" fill-rule="nonzero">
            <path d="M32.277 21.22H11.728c-.95 0-1.728.773-1.728 1.723v8.333c0 .95.778 1.723 1.728 1.723h20.549c.95 0 1.723-.773 1.723-1.723v-8.333c0-.95-.773-1.723-1.723-1.723zM10.96 31.276v-8.333c0-.422.346-.763.768-.763h.71v4.69c0 .264.216.48.48.48h.72v4.69h-1.91a.766.766 0 0 1-.768-.764zm3.638-3.926h.72c.264 0 .48-.216.48-.48v-4.69h1.896v4.69c0 .264.216.48.48.48h.72v4.69h-4.296v-4.69zm5.256 0h.72c.264 0 .48-.216.48-.48v-4.69h1.896v4.69c0 .264.216.48.48.48h.72v4.69h-4.296v-4.69zm5.256 0h.72c.264 0 .48-.216.48-.48v-4.69h1.896v4.69c0 .264.212.48.48.48h.72v4.69H25.11v-4.69zm7.93 3.926c0 .422-.34.763-.763.763h-1.91v-4.69h.72c.263 0 .48-.215.48-.48V22.18h.71c.422 0 .763.34.763.763v8.333zM17.954 20.03c1.18 0 2.14-.788 2.14-1.748v-5.99l2.343 2.342c.187.188.49.188.677 0a.484.484 0 0 0 0-.681l-3.159-3.159a.48.48 0 0 0-.82.34v5.699a2.432 2.432 0 0 0-1.181-.293c-1.181 0-2.141.782-2.141 1.742s.96 1.748 2.14 1.748zM26.925 17.27c1.06 0 1.92-.706 1.92-1.58v-5.05l1.93 1.926c.187.187.489.187.676 0a.484.484 0 0 0 0-.682l-2.745-2.74a.481.481 0 0 0-.82.336l-.001 4.852a2.17 2.17 0 0 0-.96-.216c-1.061 0-1.925.706-1.925 1.574 0 .874.864 1.58 1.925 1.58z"/>
        </g>
    </g>
</svg>
