<svg width="24" height="24" viewBox="0 0 24 24" xmlns="http://www.w3.org/2000/svg">
    <g fill-rule="nonzero" fill="none">
        <path d="M10.126 17.157a.469.469 0 1 0 0-.938.469.469 0 0 0 0 .938z" fill="#000"/>
        <path d="m.137 18.239 5.626 5.625c.183.183.48.183.663 0L9.52 20.77a.469.469 0 0 0 0-.663l-.138-.137h6.758c.593 0 1.16-.222 1.596-.628l5.687-5.33a1.82 1.82 0 0 0 .449-1.998c-.2-.5-.607-.881-1.118-1.048a1.804 1.804 0 0 0-1.521.185l-1.263.829c-.009-2.541-1.544-5.251-3.659-6.471a1.41 1.41 0 0 0-.62-2.262l-.07-.022 1.207-2.168a.468.468 0 0 0-.279-.678A9.569 9.569 0 0 0 13.876 0c-.908 0-1.808.128-2.673.38a.47.47 0 0 0-.279.677l1.207 2.168-.07.022a1.41 1.41 0 0 0-.62 2.262C9.297 6.747 7.782 9.484 7.782 12c0 .069.002.136.005.203a5.76 5.76 0 0 0-2.277 1.222l-1.425 1.246-.19-.19a.469.469 0 0 0-.663 0L.137 17.576a.469.469 0 0 0 0 .663zM12.04 1.134a8.653 8.653 0 0 1 3.672 0L14.668 3.01a5.716 5.716 0 0 0-1.583 0L12.04 1.134zm.313 3.004a4.85 4.85 0 0 1 3.044 0 .47.47 0 0 1-.117.913 4.586 4.586 0 0 0-2.808 0 .467.467 0 0 1-.417-.321.47.47 0 0 1 .298-.592zm.26 1.854a3.658 3.658 0 0 1 2.47-.02c2.178.749 3.95 3.453 3.95 6.029 0 .218-.014.426-.041.62L16.738 14.1a1.864 1.864 0 0 0-1.456-.693h-.937v-.55c.545-.193.937-.714.937-1.325 0-.775-.63-1.406-1.406-1.406a.47.47 0 0 1 0-.938c.166 0 .341.085.507.245a.469.469 0 0 0 .652-.674 1.809 1.809 0 0 0-.69-.431v-.546a.469.469 0 1 0-.938 0v.55a1.409 1.409 0 0 0-.937 1.325c0 .775.63 1.406 1.406 1.406a.47.47 0 0 1 0 .938c-.2 0-.416-.126-.609-.355a.469.469 0 0 0-.717.604c.25.298.545.505.857.61v.547h-.156c-.23 0-.334-.15-.496-.255a5.797 5.797 0 0 0-4.035-1.121V12c0-2.54 1.746-5.235 3.893-6.01zm-6.487 8.14a4.823 4.823 0 0 1 6.066-.23c.12.07.453.443 1.059.443h2.031a.936.936 0 1 1 0 1.875h-3.281a.469.469 0 1 0 0 .937h3.281a1.877 1.877 0 0 0 1.848-2.193l4.603-3.02a.87.87 0 0 1 1.268.418.867.867 0 0 1-.217.965l-5.687 5.33a1.402 1.402 0 0 1-.957.376H8.445l-3.696-3.696 1.377-1.206zm-2.563 1.344 4.962 4.963-2.43 2.431-4.963-4.962 2.43-2.432z" fill="#3D5CFF"/>
    </g>
</svg>
