<svg width="48" height="48" viewBox="0 0 48 48" xmlns="http://www.w3.org/2000/svg">
    <g fill="none" fill-rule="evenodd">
        <path d="M12 0h24c6.627 0 12 5.373 12 12v24c0 6.627-5.373 12-12 12H12C5.373 48 0 42.627 0 36V12C0 5.373 5.373 0 12 0z" fill="#EAEAFF"/>
        <g fill-rule="nonzero">
            <path d="M27.692 33.846h-7.384c-3.37 0-5.308-1.938-5.308-5.308v-7.846c0-3.369 1.938-5.307 5.308-5.307h7.384c3.37 0 5.308 1.938 5.308 5.307v7.846c0 3.37-1.938 5.308-5.308 5.308z" stroke="#3D5CFF" stroke-width=".5" fill="#3D5CFF"/>
            <path d="M20.308 18.154a.697.697 0 0 1-.693-.692v-2.77c0-.378.314-.692.693-.692.378 0 .692.314.692.692v2.77a.697.697 0 0 1-.692.692zM27.692 18.154a.697.697 0 0 1-.692-.692v-2.77c0-.378.314-.692.692-.692.379 0 .693.314.693.692v2.77a.697.697 0 0 1-.693.692zM19.77 26.23a.919.919 0 0 1-.352-.073.953.953 0 0 1-.304-.194.953.953 0 0 1-.268-.655c0-.12.028-.24.074-.351.046-.11.11-.212.194-.305a.953.953 0 0 1 .304-.193.943.943 0 0 1 1.007.193.97.97 0 0 1 .267.656c0 .055-.009.12-.018.184a.587.587 0 0 1-.056.167.699.699 0 0 1-.083.166c-.027.046-.073.092-.11.138a.97.97 0 0 1-.656.268zM24 26.23a.919.919 0 0 1-.35-.073.953.953 0 0 1-.305-.194.953.953 0 0 1-.268-.655c0-.12.028-.24.074-.351.046-.11.11-.212.194-.305a.953.953 0 0 1 .304-.194.925.925 0 0 1 1.006.194.97.97 0 0 1 .268.656c0 .055-.01.12-.018.184a.587.587 0 0 1-.056.166.699.699 0 0 1-.083.167c-.028.046-.074.092-.11.138a.97.97 0 0 1-.656.268zM28.23 26.23a.919.919 0 0 1-.35-.073.953.953 0 0 1-.305-.194l-.11-.138a.699.699 0 0 1-.083-.167.587.587 0 0 1-.056-.166c-.01-.064-.018-.129-.018-.184 0-.24.101-.48.267-.656a.953.953 0 0 1 .305-.194.922.922 0 0 1 1.006.194.97.97 0 0 1 .268.656c0 .055-.01.12-.019.184a.587.587 0 0 1-.055.166.699.699 0 0 1-.083.167c-.028.046-.074.092-.11.138a.97.97 0 0 1-.656.268zM19.77 29.461a.919.919 0 0 1-.352-.073 1.066 1.066 0 0 1-.304-.194.97.97 0 0 1-.268-.656c0-.12.028-.24.074-.35a.861.861 0 0 1 .194-.305c.341-.341.97-.341 1.31 0a.97.97 0 0 1 .268.655.97.97 0 0 1-.267.656.97.97 0 0 1-.656.267zM24 29.461a.97.97 0 0 1-.655-.267.97.97 0 0 1-.268-.656c0-.12.028-.24.074-.35a.861.861 0 0 1 .194-.305c.341-.341.969-.341 1.31 0a.861.861 0 0 1 .194.305c.046.11.074.23.074.35a.97.97 0 0 1-.268.656.97.97 0 0 1-.655.267zM28.23 29.461a.97.97 0 0 1-.655-.267.862.862 0 0 1-.193-.305.919.919 0 0 1-.074-.35c0-.12.027-.24.074-.351a.862.862 0 0 1 .193-.305.922.922 0 0 1 1.007-.194c.055.019.11.046.166.083.046.028.092.074.138.111a.97.97 0 0 1 .268.655.97.97 0 0 1-.268.656.97.97 0 0 1-.655.267zM30.432 21.93H17.568c-.31 0-.568-.315-.568-.693 0-.379.257-.693.568-.693h12.864c.31 0 .568.314.568.693 0 .378-.257.692-.568.692z" fill="#EAEAFF"/>
        </g>
    </g>
</svg>
