<svg width="48" height="48" viewBox="0 0 48 48" xmlns="http://www.w3.org/2000/svg">
    <g fill="none" fill-rule="evenodd">
        <path fill="#DAF6F4" d="M0 0h48v48H0z"/>
        <path d="M36 12v24H12V12h24z" fill-opacity=".01" fill="#FFF"/>
        <path d="M30.362 15.426h-3.86C26.065 14.559 25.084 14 24 14c-1.084 0-2.065.56-2.502 1.426h-3.86c-1.456.001-2.636 1.033-2.638 2.306v14.962c.002 1.273 1.182 2.305 2.638 2.306h12.724c1.456-.001 2.636-1.033 2.638-2.306V17.732c-.002-1.273-1.182-2.305-2.638-2.306z" fill="#00A89D"/>
        <path d="m26.972 23.094-3.942 3.849-2.002-1.954a.6.6 0 0 0-.847.851l.008.008 2.421 2.364a.6.6 0 0 0 .84 0l4.36-4.258a.6.6 0 0 0-.838-.86z" stroke="#DAF6F4" stroke-width=".5" fill="#DAF6F4" fill-rule="nonzero"/>
    </g>
</svg>
