<svg width="48" height="48" viewBox="0 0 48 48" xmlns="http://www.w3.org/2000/svg">
    <g fill="none" fill-rule="evenodd">
        <path d="M12 0h24c6.627 0 12 5.373 12 12v24c0 6.627-5.373 12-12 12H12C5.373 48 0 42.627 0 36V12C0 5.373 5.373 0 12 0z" fill="#D1FFE7"/>
        <g fill="#00EB71">
            <path d="M20.944 12.833c0-.46.374-.833.834-.833h4.444a.833.833 0 0 1 0 1.667h-4.444a.833.833 0 0 1-.834-.834zM34 25.056c0 5.522-4.477 10-10 10s-10-4.478-10-10c0-5.523 4.477-10 10-10s10 4.477 10 10zm-8.86-3.028a16.113 16.113 0 0 0-.871-.565c-1.192-.724-1.788-1.087-2.322-.686-.534.401-.583 1.241-.68 2.92-.027.476-.045.941-.045 1.359 0 .417.018.883.045 1.358.097 1.679.146 2.519.68 2.92.534.4 1.13.039 2.322-.686.309-.188.607-.38.871-.565.3-.21.628-.464.957-.733 1.195-.974 1.792-1.461 1.792-2.294 0-.834-.597-1.32-1.792-2.295-.33-.27-.656-.522-.957-.733z"/>
        </g>
    </g>
</svg>
