<svg width="45" height="45" viewBox="0 0 45 45" xmlns="http://www.w3.org/2000/svg">
    <defs>
        <linearGradient x1="50%" y1="0%" x2="50%" y2="100%" id="oe189520ba">
            <stop stop-color="#C618FF" offset="0%"/>
            <stop stop-color="#6D00EF" offset="100%"/>
        </linearGradient>
    </defs>
    <g fill="none" fill-rule="evenodd">
        <path d="M22.5 0C39.65 0 45 6.17 45 22.5S39.65 45 22.5 45 0 38.83 0 22.5 5.35 0 22.5 0z" fill="url(#oe189520ba)"/>
        <g fill="#FFF" fill-rule="nonzero">
            <path d="m35.784 9.616-.4-.4a.738.738 0 0 0-.93-.093l-1.288.86a.734.734 0 0 0-.32.713l-.328.306-.34-.34a.48.48 0 0 0-.665-.024.467.467 0 0 0-.01.67l.331.332-.295.275-.308-.307a.48.48 0 0 0-.664-.024.467.467 0 0 0-.01.671l.298.298-5.42 5.053c-1.612-1.06-3.438-1.292-4.826-.672l-2.22-2.22a1.625 1.625 0 0 0-1.105-.487 1.568 1.568 0 0 0-.953.293.467.467 0 0 0-.634.685l3.2 3.2c-.245.315-.441.63-.601.959a1.8 1.8 0 0 1-.86.725.732.732 0 0 0-.456.68c0 .291.175.55.44.657l.075.034c.05.02.065.04.068.046.111.166-.199.973-1.275 1.72-.782.542-1.513.718-1.862.652h-.002a.267.267 0 0 1-.19-.153 8.705 8.705 0 0 1-.13-.302.665.665 0 0 0-.614-.412h-.002a.686.686 0 0 0-.633.423 1.795 1.795 0 0 1-.387.577 1.73 1.73 0 0 1-.652.411c-1.082.374-1.982.9-2.603 1.52-1.044 1.045-1.432 2.526-1.094 4.172.308 1.495 1.182 3.023 2.463 4.304 1.28 1.28 2.809 2.155 4.304 2.462.387.08.766.12 1.131.12 1.188 0 2.241-.416 3.04-1.214.62-.62 1.146-1.52 1.52-2.603.161-.464.521-.843.987-1.038a.682.682 0 0 0 .411-.766.664.664 0 0 0-.4-.485 8.741 8.741 0 0 1-.301-.129.265.265 0 0 1-.152-.19v-.001c-.067-.349.11-1.08.652-1.863.746-1.076 1.554-1.385 1.719-1.275.006.004.027.018.047.07l.032.07a.708.708 0 0 0 .657.443h.003a.732.732 0 0 0 .678-.456c.198-.484.533-.744.725-.86.329-.16.644-.356.96-.6l3.124 3.124 2.646 2.646a.466.466 0 0 0 .652.008c.191-.181.18-.497-.006-.683l-1.019-1.02.593-.592a.469.469 0 0 0 .008-.669l-4.528-4.527c.62-1.387.388-3.213-.672-4.824l5.053-5.421.298.298a.466.466 0 0 0 .653.008c.19-.181.18-.497-.006-.683l-.307-.307.275-.295.331.331a.466.466 0 0 0 .653.008c.19-.182.18-.497-.006-.683l-.34-.34.306-.329a.734.734 0 0 0 .329-.028.757.757 0 0 0 .393-.305l.85-1.275a.736.736 0 0 0-.09-.93zM22.508 17.54c.741.047 1.511.302 2.219.726l-1.442 1.343-1.95-1.95c.419-.124.834-.14 1.173-.119zm.475 3.63.28-.261.828.828-.26.28-.848-.848zm.21 1.53-1.236 1.326-.983-.984 1.325-1.235.894.894zm-2.96-4.396c.073-.072.149-.139.226-.2l2.142 2.143-.28.26-2.145-2.145.058-.058zm-3.215-3.1a.643.643 0 0 1 .685.145l2.092 2.092c-.076.064-.151.131-.223.202l-.057.058-2.497-2.497zm-5.775 18.553a9.677 9.677 0 0 1-.218-.225l1.71-1.71.443.442-1.71 1.71a9.86 9.86 0 0 1-.225-.217zm13.968-7.886a2.717 2.717 0 0 0-.987.976 1.021 1.021 0 0 0-.21-.188c-.413-.275-.976-.229-1.585.131-.503.298-1.009.79-1.423 1.388-.625.902-.933 1.886-.803 2.57.063.331.225.592.468.755.015.01.033.021.059.035-.48.324-.847.793-1.036 1.34-.324.936-.785 1.734-1.299 2.247-1.043 1.044-2.381 1.032-3.32.84-.975-.2-1.972-.682-2.891-1.384l1.936-1.936 2.995-1.577a.468.468 0 0 0 .113-.745l-2.552-2.551a.467.467 0 0 0-.744.113l-1.577 2.995-1.936 1.936c-.702-.92-1.184-1.917-1.384-2.89-.193-.94-.204-2.279.84-3.322.513-.514 1.311-.975 2.248-1.298a2.672 2.672 0 0 0 1.338-1.036.795.795 0 0 0 .035.058c.164.244.425.406.757.469.684.13 1.668-.178 2.568-.803.598-.415 1.09-.92 1.388-1.423.36-.61.408-1.172.131-1.586a1.02 1.02 0 0 0-.188-.21 2.732 2.732 0 0 0 .978-.986c.116-.243.26-.48.434-.717l2.074 2.074-1.655 1.543a.468.468 0 0 0-.012.672l1.668 1.668a.467.467 0 0 0 .33.137h.009a.467.467 0 0 0 .333-.149l1.543-1.655 2.074 2.073a4.516 4.516 0 0 1-.717.436zM13.31 31.073l1.154-2.192 1.654 1.655-2.192 1.154-.616-.617zm13.385-6.307-.058.057-2.145-2.145.26-.28 2.142 2.143c-.06.077-.126.152-.2.225zm4.286 3.861.62.62-.27.27-.62-.62.27-.27zm-.661-.66-.27.269-2.752-2.752.058-.057a3.41 3.41 0 0 0 .202-.223l2.762 2.762zm-2.861-5.475c.021.34.004.754-.118 1.173l-1.95-1.95 1.342-1.442c.424.708.678 1.478.726 2.219zm-2.73-1.44-.782-.781 9.451-8.811.142.141-8.811 9.452zm9.644-9.94-.486-.486.95-.635.171.17-.635.952z"/>
            <path d="M20.897 25.649a.465.465 0 1 0-.498.788l-1.342 2.138a.933.933 0 0 0 .294 1.285.469.469 0 0 0 .645-.145.465.465 0 0 0-.147-.643l1.342-2.138a.933.933 0 0 0-.294-1.285zM19.35 24.102a.926.926 0 0 0-.581-.413.927.927 0 0 0-.703.12l-2.135 1.343a.467.467 0 0 0-.792.496.926.926 0 0 0 .791.437.926.926 0 0 0 .494-.143L18.56 24.6a.467.467 0 1 0 .792-.497z"/>
        </g>
    </g>
</svg>
