<svg width="18" height="18" viewBox="0 0 18 18" xmlns="http://www.w3.org/2000/svg">
    <g fill="#5C6979" fill-rule="nonzero">
        <path d="M16.071 1.286H13.5V.643a.643.643 0 1 0-1.286 0v.643H5.786V.643a.643.643 0 0 0-1.286 0v.643H1.929A1.929 1.929 0 0 0 0 3.214v12.857C0 17.137.863 18 1.929 18H16.07A1.929 1.929 0 0 0 18 16.071V3.214a1.929 1.929 0 0 0-1.929-1.928zM1.93 2.57H16.07c.355 0 .643.288.643.643v1.929H1.286V3.214c0-.355.288-.643.643-.643zM16.07 16.714H1.93a.643.643 0 0 1-.643-.643V6.43h15.428v9.642a.643.643 0 0 1-.643.643z"/>
        <path d="m11.796 8.512-4.05 3.471-1.508-1.507a.643.643 0 0 0-.909.909l1.929 1.929a.643.643 0 0 0 .872.033l4.5-3.857a.643.643 0 1 0-.836-.976l.002-.002z"/>
    </g>
</svg>
