<svg width="24" height="19" viewBox="0 0 24 19" xmlns="http://www.w3.org/2000/svg">
    <g fill="#5C6979" fill-rule="nonzero">
        <path d="M15.878 7.207a.226.226 0 0 1-.321 0 .469.469 0 0 0-.663.663c.227.227.525.34.823.34.299 0 .597-.113.824-.34a.469.469 0 0 0-.663-.663z"/>
        <path d="M23.108 4.916a3.054 3.054 0 0 0-2.817-.82A4.62 4.62 0 0 0 15.707 0a4.62 4.62 0 0 0-4.584 4.096 3.054 3.054 0 0 0-2.817.82 3.037 3.037 0 0 0-.876 2.47.469.469 0 0 0 .588.404l.323-.086-.086.323a.469.469 0 0 0 .404.588 3.034 3.034 0 0 0 2.722-1.163 4.638 4.638 0 0 0 2.63 2.687 1.323 1.323 0 0 1-.801.503 5.646 5.646 0 0 0-4.524 5.18c-.026-.027-.051-.054-.078-.08a4.94 4.94 0 0 0-.786-.64c.56-.652.9-1.498.9-2.423A3.736 3.736 0 0 0 4.988 8.95c-.004 0 .004 0 0 0a.478.478 0 0 1-.467-.47c0-.259.211-.47.47-.47a.469.469 0 0 0 0-.937A1.41 1.41 0 0 0 3.76 9.16a3.735 3.735 0 0 0-2.496 3.519c0 .925.34 1.771.9 2.424a4.938 4.938 0 0 0-.786.638 4.888 4.888 0 0 0-1.371 2.65.469.469 0 0 0 .924.157 3.986 3.986 0 0 1 1.96-2.792c.598.41 1.322.651 2.102.652.78 0 1.503-.241 2.102-.652a3.987 3.987 0 0 1 1.96 2.792.469.469 0 0 0 .924-.157 4.905 4.905 0 0 0-.366-1.197v-1.029a4.705 4.705 0 0 1 3.78-4.604c.05-.01.099-.021.147-.034.493.7 1.291 1.12 2.167 1.12.876 0 1.674-.42 2.167-1.12.048.013.098.025.147.034.315.063.623.158.916.282a.467.467 0 0 0 .615-.25.469.469 0 0 0-.25-.614 5.651 5.651 0 0 0-1.098-.337 1.323 1.323 0 0 1-.8-.503 4.638 4.638 0 0 0 2.629-2.687 3.035 3.035 0 0 0 2.722 1.163.469.469 0 0 0 .404-.588l-.086-.323.323.087a.469.469 0 0 0 .588-.405 3.037 3.037 0 0 0-.876-2.47zM2.202 12.679c0-1.533 1.257-2.78 2.787-2.791.006 0-.006 0 0 0 .004 0-.004 0 0 0 1.533.007 2.795 1.256 2.795 2.79a2.794 2.794 0 0 1-2.791 2.792 2.794 2.794 0 0 1-2.791-2.791zM19.369 4.3a5.03 5.03 0 0 1-3.021-1.386 5.545 5.545 0 0 0 .81-1.678 3.683 3.683 0 0 1 2.21 3.064zM15.707.937c.187 0 .37.015.55.042a4.644 4.644 0 0 1-4.213 3.337A3.68 3.68 0 0 1 15.707.937zm-5.241 6.139a2.1 2.1 0 0 1-1.144.59l.135-.504a.469.469 0 0 0-.574-.574l-.503.135a2.115 2.115 0 0 1 2.631-1.69 2.115 2.115 0 0 1-.545 2.043zm6.56 4.015c-.32.388-.799.619-1.32.619-.52 0-.997-.23-1.319-.62.23-.188.423-.423.564-.69a4.624 4.624 0 0 0 1.511 0c.142.267.334.502.565.69zm-1.32-1.567a3.68 3.68 0 0 1-3.675-3.676v-.593a5.58 5.58 0 0 0 3.71-1.624 5.971 5.971 0 0 0 3.642 1.612v.605a3.68 3.68 0 0 1-3.676 3.676zm6.825-2.936a.469.469 0 0 0-.574.574l.135.503a2.115 2.115 0 0 1-1.69-2.631 2.115 2.115 0 0 1 2.043.545 2.1 2.1 0 0 1 .589 1.144l-.503-.135z"/>
        <path d="M18.888 11.314c-.128.272-.112.448.05.529.241.12 1.632.728 2.35 1.706.744 1.012.513 2.338.513 2.616v2.304a.469.469 0 0 0 .937 0v-2.304c0-.365.08-1.927-.74-3.082-.653-.92-2.298-1.926-2.638-2.075-.226-.099-.383.003-.472.306zM5.038 13.443a.064.064 0 0 1-.09 0 .469.469 0 0 0-.664.663.999.999 0 0 0 1.417 0 .469.469 0 0 0-.663-.663z"/>
    </g>
</svg>
