<svg width="22" height="20" viewBox="0 0 22 20" xmlns="http://www.w3.org/2000/svg">
    <g fill="#5C6979" fill-rule="nonzero">
        <path d="M4.053 12.882a2.968 2.968 0 1 1 0-5.936 2.968 2.968 0 0 1 0 5.936zm0-4.777a1.81 1.81 0 1 0 0 3.62 1.81 1.81 0 0 0 0-3.62zM7.526 19.684a.579.579 0 0 1-.579-.579v-1.158a2.895 2.895 0 0 0-5.79 0v1.158a.579.579 0 0 1-1.157 0v-1.158a4.053 4.053 0 0 1 8.105 0v1.158c0 .32-.259.58-.579.58z"/>
        <path d="M7.526 18.943a.579.579 0 0 1-.443-.95l8.105-9.68a.579.579 0 0 1 .887.743l-8.105 9.68a.579.579 0 0 1-.444.207zM2.895 5.79a.579.579 0 0 1-.58-.58V.58a.579.579 0 0 1 1.159 0V5.21c0 .32-.26.578-.58.578z"/>
        <path d="M21.421 1.158H1.737a.579.579 0 1 1 0-1.158H21.42a.579.579 0 1 1 0 1.158z"/>
        <path d="M20.263 13.895a.579.579 0 0 1-.579-.58V.58a.579.579 0 0 1 1.158 0v12.737c0 .32-.26.579-.579.579z"/>
        <path d="M21.421 13.895h-6.947a.579.579 0 1 1 0-1.158h6.947a.579.579 0 0 1 0 1.158zM16.79 4.632H9.841a.579.579 0 0 1 0-1.158h6.947a.579.579 0 1 1 0 1.158zM16.79 6.947H7.525a.579.579 0 1 1 0-1.158h9.263a.579.579 0 1 1 0 1.158z"/>
    </g>
</svg>
