<svg width="20" height="20" viewBox="0 0 20 20" xmlns="http://www.w3.org/2000/svg">
    <g fill="#5C6979" fill-rule="nonzero" stroke="#5C697A" stroke-width=".4">
        <path d="M10 19c-4.965 0-9-4.035-9-9 0-2.729 1.22-5.255 3.31-6.997.261-.203.61-.174.813.087.203.262.174.61-.088.813A7.855 7.855 0 0 0 2.161 10 7.843 7.843 0 0 0 10 17.839 7.843 7.843 0 0 0 17.839 10c0-2.38-1.045-4.587-2.904-6.068a.566.566 0 0 1-.087-.813.566.566 0 0 1 .813-.087A8.907 8.907 0 0 1 19 10c0 4.965-4.035 9-9 9z"/>
        <path d="M10 10.58a.582.582 0 0 1-.58-.58V1.58c0-.319.26-.58.58-.58.32 0 .58.261.58.58V10c0 .32-.26.58-.58.58z"/>
    </g>
</svg>
