<svg width="16" height="20" viewBox="0 0 16 20" xmlns="http://www.w3.org/2000/svg">
    <g fill="#5C6979" fill-rule="nonzero">
        <path d="M7.879 9.238c1.27 0 2.368-.455 3.266-1.353.898-.898 1.353-1.997 1.353-3.266s-.455-2.368-1.353-3.266C10.247.455 9.148 0 7.879 0c-1.27 0-2.368.455-3.266 1.353C3.715 2.251 3.26 3.35 3.26 4.62c0 1.27.455 2.368 1.353 3.266.898.898 1.997 1.353 3.266 1.353zm-2.471-7.09c.689-.69 1.497-1.024 2.471-1.024s1.782.335 2.471 1.024c.69.689 1.024 1.497 1.024 2.47 0 .975-.335 1.783-1.024 2.472-.689.69-1.497 1.024-2.471 1.024S6.097 7.78 5.408 7.09c-.69-.689-1.024-1.497-1.024-2.471s.335-1.782 1.024-2.471zM15.961 14.747a11.409 11.409 0 0 0-.155-1.212 9.547 9.547 0 0 0-.298-1.218 6.019 6.019 0 0 0-.501-1.137 4.283 4.283 0 0 0-.755-.984 3.33 3.33 0 0 0-1.085-.682 3.75 3.75 0 0 0-1.385-.25c-.196 0-.385.08-.751.318-.225.147-.488.317-.782.504-.251.16-.592.31-1.012.446-.41.133-.826.2-1.238.2-.41 0-.827-.067-1.237-.2-.42-.136-.76-.285-1.011-.446-.291-.186-.555-.355-.783-.504-.366-.238-.555-.318-.75-.318-.5 0-.965.084-1.386.25a3.327 3.327 0 0 0-1.085.682 4.284 4.284 0 0 0-.755.984 6.03 6.03 0 0 0-.5 1.137 9.57 9.57 0 0 0-.298 1.218c-.078.43-.13.838-.156 1.212-.025.366-.038.747-.038 1.133 0 1 .318 1.811.946 2.409.62.59 1.44.889 2.437.889h9.234c.997 0 1.817-.3 2.437-.89.628-.596.946-1.407.946-2.409 0-.386-.013-.767-.039-1.132zm-1.682 2.728c-.41.39-.953.579-1.662.579H3.383c-.71 0-1.253-.19-1.662-.58-.402-.382-.597-.904-.597-1.594 0-.36.012-.715.035-1.055.024-.334.07-.701.14-1.092a8.44 8.44 0 0 1 .263-1.074c.1-.313.238-.624.408-.924.162-.285.348-.53.554-.727.193-.184.436-.335.722-.449.265-.104.562-.162.885-.17.04.02.11.06.223.134.231.151.498.323.792.51.332.212.76.403 1.27.568A5.142 5.142 0 0 0 8 11.856c.528 0 1.06-.086 1.583-.254.511-.166.938-.357 1.27-.568.302-.193.56-.36.792-.51a3.05 3.05 0 0 1 .223-.135c.323.008.62.066.885.17.286.114.53.265.722.45.206.196.392.44.555.727.17.299.307.61.408.923.104.328.193.69.262 1.074.07.391.117.758.14 1.092.024.34.036.694.036 1.055 0 .69-.195 1.212-.597 1.595z"/>
    </g>
</svg>
